<?xml version="1.0" standalone="no"?>
<!DOCTYPE svg PUBLIC "-//W3C//DTD SVG 1.1//EN" "http://www.w3.org/Graphics/SVG/1.1/DTD/svg11.dtd" >
<!--
2013-9-30: Created.
-->
<svg>
<metadata>
Created by iconfont
</metadata>
<defs>

<font id="iconfont" horiz-adv-x="1024" >
  <font-face
    font-family="iconfont"
    font-weight="500"
    font-stretch="normal"
    units-per-em="1024"
    ascent="896"
    descent="-128"
  />
    <missing-glyph />
    
    <glyph glyph-name="ouyecaigou" unicode="&#59012;" d="M338.69824 29.61408a76.84096 76.84096 0 1 0 0-153.68192 76.84096 76.84096 0 0 0 0 153.68192z m481.44384 0a76.84096 76.84096 0 1 0 0-153.68192 76.84096 76.84096 0 0 0 0 153.68192zM106.82368 854.95808c52.0192 0 97.77152-38.78912 107.23328-89.2928l1.024-6.63552 33.1776-191.40608 58.5728-412.54912a26.624 26.624 0 0 1 19.456-21.95456l3.4816-0.4096H888.4224a42.43456 42.43456 0 0 0 4.62848-84.62336l-4.62848-0.24576H329.80992c-51.48672 0-96.74752 38.78912-106.20928 89.4976L164.33152 554.3936 131.072 746.7008a27.89376 27.89376 0 0 1-20.8896 23.01952l-3.35872 0.32768h-43.8272a42.43456 42.43456 0 0 0-4.62848 84.70528l4.62848 0.24576h43.8272z m848.93696-107.43808c23.3472 0 41.49248-19.6608 40.26368-42.3936l-0.49152-4.58752-74.5472-446.75072a40.3456 40.3456 0 0 0-32.3584-33.01376l-4.5056-0.57344-494.63296-35.06176a40.3456 40.3456 0 0 0-10.36288 79.872l4.66944 0.6144 462.88896 32.80896 61.44 368.4352h-146.71872a40.3456 40.3456 0 0 0-40.05888 35.6352l-0.24576 4.66944c0 20.6848 15.5648 37.72416 35.6352 40.05888l4.66944 0.28672h194.3552z m-541.85984 0a40.3456 40.3456 0 0 0 4.7104-80.40448l-4.7104-0.28672H323.21536a40.3456 40.3456 0 0 0-4.7104 80.40448l4.7104 0.28672h90.68544zM589.74208 839.55712c20.6848 0 37.72416-15.5648 40.05888-35.6352l0.28672-4.7104-0.04096-286.47424 68.28032 68.1984a40.3456 40.3456 0 0 0 53.248 3.35872l3.80928-3.35872a40.3456 40.3456 0 0 0 3.35872-53.248l-3.35872-3.76832-137.13408-137.13408a40.3456 40.3456 0 0 0-53.248-3.35872l-3.76832 3.35872-145.65376 145.6128a40.3456 40.3456 0 0 0 53.248 60.416l3.80928-3.35872 76.75904-76.75904V799.21152c0 22.28224 18.06336 40.3456 40.3456 40.3456z"  horiz-adv-x="1024" />

    
    <glyph glyph-name="xunhuanbao" unicode="&#59011;" d="M487.808 884.48a200.490667 200.490667 0 0 1-130.389333-96.512L277.034667 647.338667a29.354667 29.354667 0 0 1 10.410666-39.424l18.944-10.922667a28.757333 28.757333 0 0 1 39.466667 10.666667l80.426667 140.629333a120.789333 120.789333 0 0 0 104.661333 60.757333c38.101333 0 73.984-18.090667 96.853333-48.853333l4.181334-5.973333 3.84-6.272 67.413333-117.290667L614.4 651.093333a39.68 39.68 0 0 1-45.994667-27.776 39.936 39.936 0 0 1 29.098667-48.426666l170.026667-39.68 9.856-0.341334c8.32-0.128 16.682667 2.261333 23.893333 6.912 9.813333 5.973333 16.981333 15.957333 19.626667 27.562667l38.4 169.002667c2.090667 21.418667-10.88 39.594667-30.165334 44.117333l-4.864 0.853333a39.594667 39.594667 0 0 1-41.173333-25.472l-17.664-74.410666-59.733333 104.533333a202.922667 202.922667 0 0 1-59.264 64.64 199.253333 199.253333 0 0 1-158.72 31.957333zM878.08 429.482667l-18.688-10.88a28.970667 28.970667 0 0 1-10.538667-39.552l71.253334-126.506667a123.093333 123.093333 0 0 0 0.085333-122.624 121.173333 121.173333 0 0 0-90.197333-59.989333l-4.096-0.128c-2.901333 0-6.058667 0-9.216 0.213333h-106.069334l36.266667 36.48a39.936 39.936 0 0 1 0 56.064 39.509333 39.509333 0 0 1-56.277333 0l-103.936-104.96a43.605333 43.605333 0 0 1 0.128-62.122667l103.850666-104.874666a39.424 39.424 0 0 1 64.853334 12.672l1.706666 5.034666a39.936 39.936 0 0 1-10.368 38.4l-43.434666 43.733334h112.896a199.722667 199.722667 0 0 1 147.882666 64.853333 202.581333 202.581333 0 0 1 52.437334 153.6l-3.029334 36.778667-3.072-4.522667-2.901333 10.368c-4.352 14.08-10.24 27.733333-17.536 40.618667l-72.661333 126.634666a29.141333 29.141333 0 0 1-39.338667 10.709334zM199.466667 503.893333l-160.853334-47.274666c-22.186667-5.845333-35.754667-28.202667-30.933333-50.688l1.706667-4.864a42.496 42.496 0 0 1 51.029333-25.258667l73.728 20.693333-59.946667-104.32a202.922667 202.922667 0 0 1-14.165333-171.776 200.96 200.96 0 0 1 187.904-131.072h160.768a28.928 28.928 0 0 1 28.885333 29.013334v21.034666a28.842667 28.842667 0 0 1-28.885333 29.824h-154.026667a127.786667 127.786667 0 0 0-113.792 64.768l-3.626666 7.509334c-15.786667 35.413333-13.824 76.8 5.76 110.933333l60.245333 104.533333 18.901333-72.234666a42.368 42.368 0 0 1 41.173334-31.146667 30.72 30.72 0 0 1 9.813333 0.170667 42.581333 42.581333 0 0 1 27.136 20.48 42.410667 42.410667 0 0 1 3.626667 32.426666L259.242667 471.125333a48.213333 48.213333 0 0 1-22.698667 28.842667 45.098667 45.098667 0 0 1-37.077333 3.968z"  horiz-adv-x="1024" />

    
    <glyph glyph-name="password" unicode="&#59049;" d="M804.571429-127.975619 219.428571-127.975619C165.571048-127.975619 121.904762-108.714667 121.904762-54.832762L121.904762 359.643429C121.904762 413.500952 165.571048 457.167238 219.428571 457.167238L219.428571 457.167238 219.428571 603.452952 219.428571 603.452952C219.428571 765.025524 350.403048 896.024381 512 896.024381 673.572571 896.024381 804.571429 765.025524 804.571429 603.452952L804.571429 457.167238C858.428952 457.167238 902.095238 413.500952 902.095238 359.643429L902.095238-54.832762C902.095238-108.714667 858.428952-127.975619 804.571429-127.975619ZM755.809524 603.452952 755.809524 603.452952C755.809524 603.452952 755.809524 603.452952 755.809524 603.452952 755.809524 738.108952 646.631619 847.262476 512 847.262476 377.344 847.262476 268.166095 738.108952 268.166095 603.452952 268.166095 603.452952 268.166095 603.452952 268.166095 603.452952L268.190476 603.452952 268.190476 457.167238 755.809524 457.167238 755.809524 603.452952ZM853.333333 359.643429C853.333333 386.56 831.488 408.405333 804.571429 408.405333L219.428571 408.405333C192.487619 408.405333 170.666667 386.56 170.666667 359.643429L170.666667-54.832762C170.666667-81.773714 192.487619-79.213714 219.428571-79.213714L804.571429-79.213714C831.488-79.213714 853.333333-81.773714 853.333333-54.832762L853.333333 359.643429ZM536.380952 94.890667 536.380952 18.285714C536.380952 4.827429 525.458286-6.095238 512-6.095238 498.541714-6.095238 487.619048 4.827429 487.619048 18.285714L487.619048 94.890667C445.635048 105.764571 414.47619 143.579429 414.47619 188.976762 414.47619 242.834286 458.142476 286.500571 512 286.500571 565.857524 286.500571 609.52381 242.834286 609.52381 188.976762 609.52381 143.579429 578.364952 105.764571 536.380952 94.890667ZM512 237.738667C485.059048 237.738667 463.238095 215.893333 463.238095 188.976762 463.238095 162.03581 485.059048 140.190476 512 140.190476 538.916571 140.190476 560.761905 162.03581 560.761905 188.976762 560.761905 215.893333 538.916571 237.738667 512 237.738667Z"  horiz-adv-x="1024" />

    
    <glyph glyph-name="username" unicode="&#58914;" d="M902.4 77.89999999999998c-37 119.1-128.8 216.6-245.5 260.9-6.3 2.4-13.5 1.4-19-2.6-36.7-27-80.3-41.2-125.9-41.2-45.6 0-89.2 14.2-125.9 41.2-5.5 4-12.6 5-19 2.6C250.3 294.5 158.6 197 121.6 77.89999999999998c-10.4-33.4-4.4-68.8 16.4-97 20.8-28.2 52.8-44.4 87.8-44.4h572.4c35 0 67 16.2 87.8 44.4 20.8 28.2 26.8 63.5 16.4 97z m-48.7-73.3c-13.1-17.8-33.4-28.1-55.5-28.1H225.8c-22.1 0-42.4 10.2-55.5 28.1-13.1 17.8-16.9 40.2-10.3 61.3C192.3 170 271 255.79999999999995 371.6 297.4c41.6-27.8 89.9-42.5 140.4-42.5 50.4 0 98.8 14.7 140.4 42.5C753 255.79999999999995 831.7 170 864.1 66c6.5-21.2 2.8-43.5-10.4-61.4zM512 325.1c139.6 0 253.2 113.6 253.2 253.2C765.2 718 651.6 831.6 512 831.6S258.8 718 258.8 578.4c0-139.7 113.6-253.3 253.2-253.3z m0 466.3c117.5 0 213.1-95.6 213.1-213.1S629.5 365.20000000000005 512 365.20000000000005s-213.1 95.6-213.1 213.1S394.5 791.4 512 791.4z"  horiz-adv-x="1024" />

    
    <glyph glyph-name="sousuo" unicode="&#59009;" d="M141.9776 702.8224a422.4 422.4 0 0 0 645.5296-539.904l193.8432-193.9968-54.272-54.272-189.2864 189.2352A422.4 422.4 0 0 0 141.9776 702.8224z m543.0784-54.272a345.6 345.6 0 1 1-488.7552-488.8064 345.6 345.6 0 0 1 488.7552 488.7552z"  horiz-adv-x="1024" />

    
    <glyph glyph-name="shaixuan" unicode="&#59010;" d="M614.4 102.9632V492.2368l239.2064 280.7296H172.544L404.48 492.2368v-527.872l-84.48-55.808V479.0784L0 859.4432h1024l-320-380.3648v-316.928z"  horiz-adv-x="1024" />

    
    <glyph glyph-name="chuzhi" unicode="&#59008;" d="M958.293333 682.154667H128a42.666667 42.666667 0 0 1-42.666667-42.666667v-706.261333a42.666667 42.666667 0 0 1 42.666667-42.666667h830.293333a42.666667 42.666667 0 0 1 42.666667 42.666667V639.488a42.666667 42.666667 0 0 1-42.666667 42.666667z m-42.666666-85.333334v-620.885333H170.666667V596.821333h744.96zM360.106667 853.333333a42.666667 42.666667 0 0 0 42.325333-37.674666L402.773333 810.666667v-146.645334a42.666667 42.666667 0 0 0-85.034666-4.992l-0.298667 4.992V810.666667a42.666667 42.666667 0 0 0 42.666667 42.666666zM716.8 853.333333a42.666667 42.666667 0 0 0 42.368-37.674666L759.466667 810.666667v-146.645334a42.666667 42.666667 0 0 0-85.077334-4.992l-0.256 4.992V810.666667a42.666667 42.666667 0 0 0 42.666667 42.666666zM334.506667 303.189333l-0.469334 1.066667 33.621334-29.866667 90.24-78.165333 289.578666 253.354667a42.666667 42.666667 0 0 0 56.448-0.213334l3.754667-3.84a42.666667 42.666667 0 0 0-0.213333-56.405333l-3.84-3.754667-317.354667-277.76a42.666667 42.666667 0 0 0-55.893333-0.256L311.466667 210.176a2453.333333 2453.333333 0 0 0-30.208 26.709333l-10.709334 10.112a341.76 341.76 0 0 0-1.450666 1.536l-0.938667 0.213334c-1.621333 0.725333-2.773333 4.266667-10.794667 29.354666a42.666667 42.666667 0 0 0 72.832 30.165334l3.114667-3.498667 1.194667-1.578667z"  horiz-adv-x="1109" />

    
    <glyph glyph-name="xiangji" unicode="&#59007;" d="M1037.543226 695.59329H8.258065v-816.392258h1029.285161V695.59329z m-49.58142-49.548387v-717.262451H57.773419V646.044903h930.188387zM743.390968 868.186839v-49.548387H302.37729v49.548387zM522.900645 481.180903c-108.147613 0-195.947355-86.709677-195.947355-193.800258 0-107.057548 87.799742-193.734194 195.947355-193.734193 108.081548 0 195.88129 86.676645 195.88129 193.734193 0 107.090581-87.76671 193.800258-195.88129 193.800258z m0-49.548387c80.862968 0 146.332903-64.677161 146.332903-144.251871 0-79.541677-65.469935-144.185806-146.332903-144.185806-80.929032 0-146.398968 64.644129-146.398968 144.185806 0 79.607742 65.469935 144.251871 146.398968 144.251871z"  horiz-adv-x="1057" />

    
    <glyph glyph-name="tishi" unicode="&#59006;" d="M512-128A512 512 0 1 0 512 896a512 512 0 0 0 0-1024z m-53.906286 537.234286c-3.437714-12.873143-6.217143-24.576-12.434285-49.737143l-14.921143-62.171429c-7.533714-31.451429-13.604571-60.196571-19.017143-86.820571a48.932571 48.932571 0 0 1 10.971428-42.276572 39.277714 39.277714 0 0 1 32.036572-15.652571 30.866286 30.866286 0 0 1 15.652571 3.437714 397.165714 397.165714 0 0 1 68.242286 36.937143l10.24 6.802286 19.821714 13.604571 4.827429 3.437715h4.754286l7.533714 4.827428 4.827428 3.437714v5.485715l-10.24 12.288a33.645714 33.645714 0 0 1 0 4.827428l-4.827428 10.24-3.437714 6.217143h-6.875429l-9.581714-4.827428-9.581715-6.144-8.265142-5.485715-16.310858-10.971428-11.702857-3.437715c5.485714 24.576 7.533714 34.157714 10.971429 46.372572 3.437714 12.434286 4.827429 19.090286 6.875428 28.745143v12.288c5.485714 21.869714 10.971429 43.008 17.042286 64.146285l7.533714 28.013715V422.765714l4.827429 18.432a86.966857 86.966857 0 0 1 0 37.595429 33.499429 33.499429 0 0 1-21.211429 27.282286 35.474286 35.474286 0 0 1-29.988571 0 185.197714 185.197714 0 0 1-32.841143-17.700572c-14.921143-10.24-25.892571-18.358857-53.906286-39.497143l-19.748571-14.336-12.434286-9.581714-7.533714-6.144-4.096-6.217143 3.437714-6.144 4.827429-8.265143v-4.754285l6.144-10.24 4.827428-6.217143 11.702858 6.802285 9.508571 6.875429 14.994286 10.24 25.234285 12.434286v4.096c0.731429-2.925714 0.731429-5.924571 0-8.923429l2.121143 0.731429z m-4.169143 214.454857a46.299429 46.299429 0 0 1 12.361143-34.889143 60.708571 60.708571 0 0 1 47.762286-17.042286 72.777143 72.777143 0 0 1 40.96 14.994286 51.126857 51.126857 0 0 1 18.358857 64.073143 50.834286 50.834286 0 0 1-38.838857 28.745143h-15.652571a54.857143 54.857143 0 0 1-21.211429 0 61.952 61.952 0 0 1-43.593143-53.979429l-0.146286-1.901714z"  horiz-adv-x="1024" />

    
    <glyph glyph-name="gengduo" unicode="&#59005;" d="M384 737.92L316.16 670.08 602.112 384l-286.08-286.08L384 30.08 737.92 384z"  horiz-adv-x="1024" />

    
    <glyph glyph-name="fanhui" unicode="&#59001;" d="M582.4-24.3712l-389.1712 389.1712 389.1712 389.1712 54.272-54.272-334.848-334.8992 334.848-334.848z"  horiz-adv-x="1024" />

    
    <glyph glyph-name="xialasanjiao" unicode="&#59002;" d="M589.824 117.46133334000001L1024 623.9317333399999H0l434.176-506.6752a102.4 102.4 0 0 1 155.648 0z"  horiz-adv-x="1706" />

    
    <glyph glyph-name="bianji" unicode="&#59003;" d="M901.696 581.696l-248.96 248.896-428.096-428.16 23.424-228.032 225.728-20.608 427.904 427.904z m-135.808 0L437.76 253.44l-102.208 9.344-10.688 104L652.8 694.848l113.088-113.152zM960 48v-96H128v96z"  horiz-adv-x="1024" />

    
    <glyph glyph-name="qingchu" unicode="&#59004;" d="M506.624 846.848a457.472 457.472 0 1 1 0.1024-914.944A457.472 457.472 0 0 1 506.624 846.848z m0-76.8a380.672 380.672 0 1 0 0-761.344 380.672 380.672 0 0 0 0 761.344zM630.3744 567.4496l54.3232-54.272-301.824-301.9264-54.3232 54.3232zM382.8736 567.5008l301.824-301.9264-54.272-54.272-301.8752 301.8752z"  horiz-adv-x="1024" />

    
    <glyph glyph-name="jieyong" unicode="&#59000;" d="M556.117333 351.744a42.666667 42.666667 0 0 0 4.949334-85.034667l-4.949334-0.298666L128 266.453333v-63.104l385.664-155.776 415.061333 296.234667a42.666667 42.666667 0 0 0 56.149334-5.76l3.413333-4.181333a42.666667 42.666667 0 0 0-5.802667-56.106667l-4.181333-3.413333-434.090667-309.888a42.666667 42.666667 0 0 0-35.626666-6.528l-5.12 1.706666-434.133334 175.36a42.666667 42.666667 0 0 0-26.368 34.389334L42.666667 174.506667v134.570666a42.666667 42.666667 0 0 0 37.674666 42.410667L85.333333 351.744h470.784zM760.490667 606.378667a42.666667 42.666667 0 0 0 4.949333-85.034667l-4.949333-0.298667H256a42.666667 42.666667 0 0 0-4.992 85.077334L256 606.378667h504.490667zM635.733333 832a42.666667 42.666667 0 0 0 4.992-85.034667l-4.949333-0.298666H341.333333a42.666667 42.666667 0 0 0-4.992 85.034666L341.333333 832h294.4z"  horiz-adv-x="1024" />

    
    <glyph glyph-name="weixiu" unicode="&#58993;" d="M644.138667 815.36a268.714667 268.714667 0 0 0 158.122666-16.682667c10.24-4.352 17.578667-13.482667 19.669334-24.32a33.408 33.408 0 0 0-8.96-30.08l-120.234667-121.642666 79.274667-80.213334 119.594666 121.045334a33.365333 33.365333 0 0 0 54.485334-10.624 275.498667 275.498667 0 0 0-56.746667-300.672 267.818667 267.818667 0 0 0-277.504-67.072l-354.773333-358.954667a63.018667 63.018667 0 0 0-89.557334 0L83.925333 11.52a63.573333 63.573333 0 0 0 0 89.344l353.621334 359.296a275.797333 275.797333 0 0 0 66.645333 279.68 268.757333 268.757333 0 0 0 139.946667 75.52z m52.053333-61.696a201.216 201.216 0 0 1-143.232-60.842667 209.066667 209.066667 0 0 1-57.472-107.776c-8.149333-41.6-3.754667-85.632 8.533333-154.581333l-366.549333-377.642667 78.677333-75.008 395.392 379.264a201.514667 201.514667 0 0 1 229.034667 41.856 208.469333 208.469333 0 0 1 57.813333 179.072l-145.536-112.64-136.234666 175.36 109.312 110.677334a193.792 193.792 0 0 1-29.781334 2.261333zM567.168 542.165333a42.666667 42.666667 0 0 0 56.32 3.541334l4.010667-3.541334 108.416-108.458666a42.666667 42.666667 0 0 0-56.32-63.872l-4.010667 3.541333-108.416 108.458667a42.666667 42.666667 0 0 0 0 60.330666z"  horiz-adv-x="1024" />

    
    <glyph glyph-name="zichanfenlei" unicode="&#58994;" d="M938.666667 853.333333h-341.333334a42.666667 42.666667 0 0 1-42.666666-42.666666v-341.333334a42.666667 42.666667 0 0 1 42.666666-42.666666h341.333334a42.666667 42.666667 0 0 1 42.666666 42.666666V810.666667a42.666667 42.666667 0 0 1-42.666666 42.666666z m-42.666667-85.333333v-256h-256V768h256zM426.666667 853.333333H85.333333a42.666667 42.666667 0 0 1-42.666666-42.666666v-341.333334a42.666667 42.666667 0 0 1 42.666666-42.666666h341.333334a42.666667 42.666667 0 0 1 42.666666 42.666666V810.666667a42.666667 42.666667 0 0 1-42.666666 42.666666zM384 768v-256H128V768h256zM426.666667 341.333333H85.333333a42.666667 42.666667 0 0 1-42.666666-42.666666v-341.333334a42.666667 42.666667 0 0 1 42.666666-42.666666h341.333334a42.666667 42.666667 0 0 1 42.666666 42.666666v341.333334a42.666667 42.666667 0 0 1-42.666666 42.666666z m-42.666667-85.333333v-256H128v256h256zM938.666667 341.333333h-341.333334a42.666667 42.666667 0 0 1-42.666666-42.666666v-341.333334a42.666667 42.666667 0 0 1 42.666666-42.666666h341.333334a42.666667 42.666667 0 0 1 42.666666 42.666666v341.333334a42.666667 42.666667 0 0 1-42.666666 42.666666z m-42.666667-85.333333v-256h-256v256h256z"  horiz-adv-x="1024" />

    
    <glyph glyph-name="bumenzuzhi" unicode="&#58995;" d="M512 512a42.666667 42.666667 0 0 0 42.368-37.674667L554.666667 469.333333v-323.328a42.666667 42.666667 0 0 0-85.034667-4.992L469.333333 146.005333V469.333333a42.666667 42.666667 0 0 0 42.666667 42.666667zM512 853.333333a213.333333 213.333333 0 1 1 0-426.666666 213.333333 213.333333 0 0 1 0 426.666666z m0-85.333333a128 128 0 1 0 0-256 128 128 0 0 0 0 256zM853.504 340.693333H170.624a42.666667 42.666667 0 0 1-42.666667-42.666666V-42.666667a42.666667 42.666667 0 0 1 42.666667-42.666666h682.88a42.666667 42.666667 0 0 1 42.666667 42.666666v340.693334a42.666667 42.666667 0 0 1-42.666667 42.666666z m-42.709333-85.333333V0H213.290667v255.36h597.504z"  horiz-adv-x="1024" />

    
    <glyph glyph-name="pandian" unicode="&#58996;" d="M490.666667 469.333333a192 192 0 1 1 0-384 192 192 0 0 1 0 384z m0-85.333333a106.666667 106.666667 0 1 0 0-213.333333 106.666667 106.666667 0 0 0 0 213.333333zM837.376 836.266667H176a42.666667 42.666667 0 0 1-40.704-29.781334L1.962667 384a42.666667 42.666667 0 0 1-1.962667-12.842667v-408.448a42.666667 42.666667 0 0 1 42.666667-42.666666h916.522666a42.666667 42.666667 0 0 1 42.666667 42.666666V371.2a42.666667 42.666667 0 0 1-1.664 11.818667l-121.813333 422.485333a42.666667 42.666667 0 0 1-40.96 30.848z m-32.128-85.290667l111.274667-385.877333v-359.68H85.290667v359.168l121.941333 386.389333h598.016zM581.12 224.256a42.666667 42.666667 0 0 0 53.973333 17.493333l4.437334-2.261333 127.274666-74.666667a42.666667 42.666667 0 0 0-38.741333-75.904l-4.437333 2.261334-127.274667 74.666666a42.666667 42.666667 0 0 0-15.232 58.410667zM662.357333 640a42.666667 42.666667 0 0 0 4.992-85.034667L662.357333 554.666667H349.312a42.666667 42.666667 0 0 0-4.949333 85.034666L349.312 640h313.045333z"  horiz-adv-x="1024" />

    
    <glyph glyph-name="shezhi" unicode="&#58997;" d="M375.808 861.866667l6.954667-0.341334a75.093333 75.093333 0 0 0 48.384-23.893333c23.04-25.258667 59.52-50.986667 82.986666-50.986667 23.296 0 59.733333 25.386667 82.474667 50.048 14.208 15.274667 34.133333 23.893333 54.954667 23.850667 7.68 0 15.018667-1.194667 22.229333-3.626667l7.168-2.858666 1.92-1.024 116.821333-68.693334 1.28-1.066666c25.045333-18.474667 35.541333-53.162667 26.410667-82.304l-5.461333-15.36a120.832 120.832 0 0 1-6.058667-27.818667c-0.170667-2.133333-0.256-4.138667-0.256-6.058667 0-58.368 42.88-106.112 96.768-109.824l6.784-0.213333h4.693333c27.648 0 49.152-23.850667 55.424-59.178667l2.816-17.621333 1.408-9.856 0.725334-5.418667c1.877333-14.464 3.285333-28.586667 4.138666-41.898666 0.554667-8.490667 0.853333-16.469333 0.853334-23.893334 0-7.125333-0.298667-14.805333-0.810667-22.997333-0.853333-13.610667-2.261333-28.074667-4.181333-42.88l-1.962667-14.378667c-0.938667-6.4-1.877333-11.904-2.986667-18.474666-5.888-32.896-25.045333-55.893333-50.048-58.794667l-5.461333-0.298667h-4.693333c-57.002667 0-103.637333-49.28-103.637334-110.08 0-2.133333 0.128-4.394667 0.341334-6.741333 0.682667-6.741333 2.133333-14.037333 4.266666-21.504 1.28-4.608 2.602667-8.533333 3.669334-11.349333l0.938666-2.474667a77.312 77.312 0 0 0-18.816-85.461333l-5.162666-4.266667-2.261334-1.536-118.784-69.12-1.28-0.512c-8.96-4.181333-18.773333-6.272-28.544-6.144-21.333333-0.042667-41.728 9.130667-55.893333 25.258667-22.698667 26.410667-60.586667 54.272-84.736 54.272-23.082667 0-61.354667-26.88-84.266667-53.290667-14.08-15.872-34.218667-24.917333-55.381333-24.917333a67.157333 67.157333 0 0 0-23.594667 4.138666L340.181333-85.333333l-2.048 1.109333-114.517333 67.712-1.28 0.981333c-25.045333 18.474667-35.541333 53.205333-26.24 82.858667l4.522667 12.373333c0.853333 2.389333 1.706667 5.12 2.56 8.192 2.133333 7.68 3.669333 15.146667 4.266666 22.058667 0.170667 2.133333 0.298667 4.138667 0.298667 6.058667 0 58.410667-42.88 106.112-96.768 109.824l-6.826667 0.213333h-4.693333c-27.605333 0-49.066667 23.808-55.424 59.178667C38.912 314.453333 34.133333 351.786667 34.133333 383.914667c0 32.213333 5.12 72.106667 9.898667 98.688 5.973333 33.024 25.002667 55.893333 49.92 58.837333l5.461333 0.298667h4.693334c57.002667 0 103.637333 49.322667 103.637333 110.08 0 14.506667-4.992 32.298667-9.173333 42.026666a76.501333 76.501333 0 0 0 18.816 85.205334l5.248 4.48 2.261333 1.536L345.6 855.04l1.834667 0.853333c6.741333 2.986667 13.866667 4.864 21.12 5.632L375.808 861.866667z m1.706667-72.192L262.954667 723.157333l2.389333-6.698666 3.413333-10.24c5.290667-17.408 8.832-36.096 8.832-54.101334a190.122667 190.122667 0 0 0-46.506666-125.44 168.96 168.96 0 0 0-112.042667-57.941333l-6.613333-0.597333-1.024-6.570667-2.090667-13.696a473.216 473.216 0 0 1-5.376-63.658667c0-22.186667 3.072-49.792 7.466667-77.312l1.024-6.528 6.613333-0.64 9.941333-1.28a168.96 168.96 0 0 0 102.101334-56.618666 190.037333 190.037333 0 0 0 46.506666-125.482667c0-21.674667-5.248-45.013333-12.373333-64.512l-2.389333-6.656 108.288-64 13.013333 13.653333a322.986667 322.986667 0 0 0 29.866667 26.410667c31.146667 23.722667 60.288 36.650667 87.210666 38.826667l6.869334 0.256 9.301333-0.341334c27.306667-2.218667 56.661333-15.445333 87.594667-39.808 15.36-12.032 29.013333-25.173333 38.357333-35.584l4.650667-5.162666 112.298666 65.664-2.432 6.698666-4.096 12.544a204.714667 204.714667 0 0 0-8.106666 52.053334c0 46.506667 16.469333 90.965333 46.421333 125.184a169.173333 169.173333 0 0 0 112.128 57.941333l6.613333 0.64 3.157334 20.992c3.285333 23.509333 5.333333 44.586667 5.333333 62.933333 0 21.888-2.944 47.957333-7.466667 77.226667l-1.024 6.613333-6.613333 0.597334-9.941333 1.28a168.96 168.96 0 0 0-102.101334 56.746666 189.696 189.696 0 0 0-46.506666 125.44c0 21.504 5.034667 43.989333 12.245333 64.512l2.304 6.613334-110.72 65.066666-4.693333-4.821333-6.656-6.741333c-9.130667-8.96-19.328-17.877333-31.317334-26.709334-33.152-24.746667-64.426667-37.12-92.842666-37.12-28.501333 0-59.946667 12.629333-93.568 37.845334a307.114667 307.114667 0 0 0-38.144 34.133333l-4.693334 4.906667zM511.658667 561.536c92.458667 0 167.509333-79.530667 167.509333-177.194667 0-97.706667-75.306667-177.28-167.509333-177.28-92.458667 0-167.509333 79.530667-167.509334 177.28 0 97.834667 75.264 177.194667 167.509334 177.194667z m0-74.026667c-53.845333 0-97.536-46.208-97.536-103.168 0-57.002667 43.690667-103.338667 97.536-103.338666 53.888 0 97.536 46.378667 97.536 103.253333 0 56.96-43.818667 103.253333-97.536 103.253333z"  horiz-adv-x="1024" />

    
    <glyph glyph-name="lingyong" unicode="&#58998;" d="M806.0928 814.08a40.96 40.96 0 0 0 40.67328-36.16768l0.24576-4.79232v-210.04288a40.96 40.96 0 0 0-81.63328-4.79232l-0.28672 4.79232V732.16H157.9008v-714.30144h163.84a40.96 40.96 0 0 0 40.67328-36.20864l0.28672-4.79232a40.96 40.96 0 0 0-36.16768-40.67328l-4.79232-0.28672h-204.8a40.96 40.96 0 0 0-40.67328 36.20864l-0.28672 4.75136V773.12a40.96 40.96 0 0 0 36.16768 40.67328L116.9408 814.08h689.11104zM649.4208 650.24a40.96 40.96 0 0 0 4.79232-81.63328L649.4208 568.32h-368.64a40.96 40.96 0 0 0-4.79232 81.63328L280.7808 650.24h368.64zM736.0512 431.96416a40.96 40.96 0 0 0 52.75648 6.79936l4.01408-2.99008 132.42368-111.77984a40.96 40.96 0 0 0 7.86432-53.6576l-3.072-4.17792-81.55136-95.8464a40.96 40.96 0 0 0-65.49504 48.9472l3.072 4.096 54.92736 64.59392-70.77888 59.71968-55.00928-60.8256-189.89056-208.81408-3.23584-83.5584 78.06976 12.16512 125.62432 142.82752a40.96 40.96 0 0 0 53.73952 6.88128l4.05504-3.15392a40.96 40.96 0 0 0 6.88128-53.73952l-3.15392-4.096-135.3728-154.0096a40.96 40.96 0 0 0-18.88256-12.12416l-5.57056-1.26976-141.9264-22.1184a40.96 40.96 0 0 0-47.14496 37.31456l-0.08192 4.79232 5.7344 148.15232a40.96 40.96 0 0 0 7.04512 21.42208l3.56352 4.5056 199.8848 219.87328 81.5104 90.07104zM656.09728 340.04992a40.96 40.96 0 0 0 53.78048 6.38976l4.096-3.19488 125.58336-112.51712a40.96 40.96 0 0 0-50.62656-64.22528l-4.05504 3.19488-125.58336 112.51712a40.96 40.96 0 0 0-3.19488 57.83552zM567.5008 436.0192a40.96 40.96 0 0 0 4.79232-81.67424l-4.79232-0.24576h-286.72a40.96 40.96 0 0 0-4.79232 81.63328l4.79232 0.28672h286.72zM362.7008 240.64a40.96 40.96 0 0 0 4.79232-81.63328L362.7008 158.72h-81.92a40.96 40.96 0 0 0-4.79232 81.63328L280.7808 240.64h81.92z"  horiz-adv-x="1024" />

    
    <glyph glyph-name="ruku" unicode="&#58999;" d="M373.12 672.042667a42.666667 42.666667 0 0 0 4.992-85.034667l-4.992-0.298667-169.386667 0.042667-118.442666-267.349333v-356.650667h831.232v357.418667l-107.904 266.581333h-182.144a42.666667 42.666667 0 0 0-42.368 37.632l-0.298667 4.992a42.666667 42.666667 0 0 0 37.674667 42.368l4.992 0.298667h210.901333a42.666667 42.666667 0 0 0 37.333333-21.973334l2.218667-4.693333 121.813333-300.885333a42.666667 42.666667 0 0 0 2.773334-10.538667l0.341333-5.461333v-408.448a42.666667 42.666667 0 0 0-37.674667-42.368l-4.992-0.298667H42.666667a42.666667 42.666667 0 0 0-42.368 37.717333L0-79.957333V328.533333a42.666667 42.666667 0 0 0 1.621333 11.690667l2.048 5.589333L136.96 646.656a42.666667 42.666667 0 0 0 33.450667 25.045333l5.546666 0.341334h197.162667zM243.84 332.501333a42.666667 42.666667 0 0 0 55.253333 11.477334l4.48-2.986667 208.128-156.032 203.093334 155.733333a42.666667 42.666667 0 0 0 56.277333-3.797333l3.541333-4.053333a42.666667 42.666667 0 0 0-3.84-56.32l-4.053333-3.498667-228.736-175.488a42.666667 42.666667 0 0 0-46.848-3.413333l-4.736 3.114666-234.026667 175.530667a42.666667 42.666667 0 0 0-8.533333 59.733333zM512 801.365333a42.666667 42.666667 0 0 0 42.368-37.674666l0.298667-4.992v-627.328a42.666667 42.666667 0 0 0-85.034667-4.992L469.333333 131.413333V758.698667a42.666667 42.666667 0 0 0 42.666667 42.666666z"  horiz-adv-x="1024" />

    
    <glyph glyph-name="saoyisao" unicode="&#58988;" d="M763.345455 363.52H260.654545c-20.48 0-37.236364 16.756364-37.236363 37.236364 0 20.48 16.756364 37.236364 37.236363 37.236363h502.69091c20.48 0 37.236364-16.756364 37.236363-37.236363 0-20.48-16.290909-37.236364-37.236363-37.236364zM121.018182-6.981817999999976v223.418182c0 20.48-16.756364 37.236364-37.236364 37.236363-20.48 0-37.236364-16.756364-37.236363-37.236363v-242.036364c0-30.72 25.134545-55.854545 55.854545-55.854545h242.036364c20.48 0 37.236364 16.756364 37.236363 37.236363 0 20.48-16.756364 37.236364-37.236363 37.236364H121.018182z m0 781.963636h223.418182c20.48 0 37.236364 16.756364 37.236363 37.236364 0 20.48-16.756364 37.236364-37.236363 37.236363H102.4C71.68 849.454545 46.545455 824.3199999999999 46.545455 793.6v-242.036364c0-20.48 16.756364-37.236364 37.236363-37.236363 20.48 0 37.236364 16.756364 37.236364 37.236363V774.981818z m781.963636-781.963636h-223.418182c-20.48 0-37.236364-16.756364-37.236363-37.236364 0-20.48 16.756364-37.236364 37.236363-37.236363h242.036364c30.72 0 55.854545 25.134545 55.854545 55.854545v242.036364c0 20.48-16.756364 37.236364-37.236363 37.236363-20.48 0-37.236364-16.756364-37.236364-37.236363v-223.418182zM921.6 849.454545h-242.036364c-20.48 0-37.236364-16.756364-37.236363-37.236363 0-20.48 16.756364-37.236364 37.236363-37.236364h223.418182v-223.418182c0-20.48 16.756364-37.236364 37.236364-37.236363 20.48 0 37.236364 16.756364 37.236363 37.236363V793.6c0 30.72-24.669091 55.854545-55.854545 55.854545z"  horiz-adv-x="1024" />

    
    <glyph glyph-name="baobiao" unicode="&#58989;" d="M217.925818 353.605818H102.120727c-32.395636 0-55.575273-27.787636-55.575272-64.837818v-254.789818c0-37.050182 27.787636-64.837818 55.575272-64.837818h115.805091c32.442182 0 55.575273 27.787636 55.575273 64.837818v254.789818c4.654545 37.050182-23.133091 64.837818-55.575273 64.837818zM565.341091 802.909091H449.536c-32.442182 0-55.575273-27.787636-55.575273-64.837818V33.97818199999995c0-37.050182 27.787636-64.837818 55.575273-64.837818h115.805091c32.395636 0 60.183273 27.787636 60.183273 64.837818V738.071273c0 37.050182-27.787636 64.837818-60.183273 64.837818z m352.023273-194.56H801.512727c-32.442182 0-60.229818-27.787636-60.229818-64.837818v-514.141091c0-37.050182 27.787636-64.837818 60.229818-64.837818h115.805091c32.442182 0 55.575273 27.787636 55.575273 64.837818V548.165818c0 32.395636-27.787636 60.183273-55.575273 60.183273z"  horiz-adv-x="1024" />

    
    <glyph glyph-name="gongzuotai" unicode="&#58990;" d="M289.373091 769.303273c16.104727 0 28.439273-14.429091 26.903273-30.626909l-0.977455-6.376728c-0.325818-2.466909-0.465455-4.933818-0.512-7.400727 0-28.997818 19.781818-54.830545 38.632727-54.830545h298.914909c17.128727 0 36.770909 26.065455 36.724364 54.830545 0 2.513455-0.186182 4.980364-0.465454 7.447273l-0.977455 6.330182a27.554909 27.554909 0 0 0 26.903273 30.626909h115.712c85.317818 0 135.121455-55.947636 135.121454-141.824v-537.739637c0-94.952727-47.848727-140.567273-141.079272-140.567272H178.408727c-88.808727 0-131.584 49.477818-131.584 140.567272V627.5258180000001c0 91.368727 37.050182 141.824 125.626182 141.824h116.922182z m443.810909-262.469818a35.188364 35.188364 0 0 1-24.994909-10.379637L485.934545 273.221818l-116.363636 116.829091a35.234909 35.234909 0 0 1-49.943273 0 35.653818 35.653818 0 0 1 0-50.176l141.312-141.917091a35.188364 35.188364 0 0 1 49.989819 0l247.296 248.32a35.560727 35.560727 0 0 1-24.99491 60.555637zM396.241455 802.071273c-25.553455 0-45.986909-21.969455-45.98691-49.105455 0-27.229091 20.48-49.291636 45.98691-49.291636h214.341818c24.250182 0 44.730182 22.062545 44.730182 49.291636 0 27.136-20.433455 49.105455-46.08 49.105455H396.288z"  horiz-adv-x="1024" />

    
    <glyph glyph-name="shouye" unicode="&#58991;" d="M951.202909 492.171636a104.308364 104.308364 0 0 1-13.963636 40.494546 97.559273 97.559273 0 0 1-18.804364 21.038545l-15.313454 12.986182-300.357819 254.138182c-43.892364 37.143273-115.898182 37.143273-159.837091 0L142.429091 566.6909089999999l-15.36-12.939636c-7.214545-6.050909-13.498182-13.172364-18.757818-21.038546l-0.139637-0.279272a104.261818 104.261818 0 0 1-14.661818-53.853091v-457.821091c0-55.016727 41.751273-100.072727 92.811637-100.072728h672.954181c50.967273 0 92.811636 45.056 92.811637 100.072728V478.580364a112.64 112.64 0 0 1-0.930909 13.591272z m-267.264-19.642181c-26.344727-45.381818-53.992727-90.018909-81.035636-134.981819-2.699636-4.608-5.585455-9.262545-9.402182-15.732363 6.376727-0.279273 11.170909-0.465455 16.104727-0.837818 14.429091-1.117091 29.184-0.977455 43.287273-3.770182 12.241455-2.420364 17.035636-11.264 17.082182-23.505455 0.046545-12.194909-5.957818-19.362909-16.849455-22.667636-6.562909-2.094545-13.405091-3.258182-20.293818-3.537455-22.248727-0.418909-44.450909-0.139636-67.584-0.139636v-41.611636c17.873455 0 35.979636 0.186182 54.085818 0 9.122909 0.093091 18.199273-0.512 27.229091-1.861819 16.058182-2.653091 23.412364-11.217455 23.412364-25.367272 0-14.149818-7.493818-22.993455-23.924364-24.715637-19.176727-2.048-38.539636-1.768727-57.856-2.327272-7.540364-0.232727-15.127273 0-22.667636 0-1.163636-16.290909-1.210182-31.604364-3.490909-46.545455-3.723636-24.203636-17.501091-35.467636-39.796364-34.909091-13.405091 0.372364-23.970909 6.283636-28.392727 18.571636a178.501818 178.501818 0 0 0-7.866182 35.933091c-1.117091 8.192-0.186182 16.709818-0.186182 26.810182h-13.032727c-22.993455 0.651636-45.986909 0.512-68.887273 2.327273-14.056727 1.163636-21.597091 8.936727-23.412364 19.362909-2.699636 14.941091 3.909818 26.112 18.804364 29.789091 8.145455 1.861818 16.477091 2.792727 24.855273 2.699636 20.014545 0.372364 40.029091 0 60.834909 0v41.844364c-21.969455 0-43.706182-0.232727-65.489455 0a81.92 81.92 0 0 0-20.48 2.699636c-13.358545 3.723636-19.037091 11.636364-18.944 24.482909 0 12.334545 5.399273 19.921455 18.990546 23.133091 9.634909 1.861818 19.409455 2.885818 29.230545 3.072 8.890182 0.465455 17.92 0 29.044364 0-4.049455 6.609455-6.795636 11.170909-9.681455 15.685818l-80.244363 125.207273a174.917818 174.917818 0 0 0-6.097455 10.379637c-13.405091 24.669091-7.819636 43.287273 16.989091 55.621818h17.547636c14.196364-5.12 22.621091-16.384 30.347637-28.439273 30.72-48.221091 61.44-96.349091 92.253091-144.523636 2.048-3.258182 4.282182-6.376727 6.935272-10.333091 2.653091 3.956364 4.468364 6.609455 6.097455 9.355636 28.997818 47.941818 57.949091 95.930182 86.853818 143.918546 7.819636 13.032727 16.104727 25.134545 31.464727 30.021818h17.547637c24.948364-12.474182 31.045818-30.114909 16.616727-55.109818z"  horiz-adv-x="1024" />

    
    <glyph glyph-name="wode" unicode="&#58992;" d="M917.876364-76.75345500000003H103.796364c-16.849455 0-33.652364 8.424727-44.218182 21.038546-10.472727 14.754909-14.708364 31.557818-10.472727 48.407273 42.077091 214.574545 216.669091 374.458182 427.054545 391.261091 70.469818 0 146.757818-8.936727 222.999273-39.936 22.109091-8.936727 29.463273-14.754909 42.077091-21.038546 121.995636-69.445818 206.196364-189.346909 233.518545-330.286545 4.189091-16.849455 0-33.652364-12.613818-48.407273a59.205818 59.205818 0 0 0-44.218182-21.038546zM511.860364 399.220364c-114.641455 0-207.732364 93.090909-207.732364 207.732363 0 114.688 93.090909 207.778909 207.732364 207.778909 114.688 0 207.778909-93.090909 207.778909-207.778909 0-114.641455-93.090909-207.732364-207.778909-207.732363z"  horiz-adv-x="1024" />

    


  </font>
</defs>
</svg>
